<svg width="16px" height="16px" viewBox="0 0 24 24" version="1.1" xmlns="http://www.w3.org/2000/svg" xmlns:xlink="http://www.w3.org/1999/xlink">    <title>icons/prod cat/PA/clr-personal-assident</title>    <g id="icons/prod-cat/PA/clr-personal-assident" stroke="none" stroke-width="1" fill="none" fill-rule="evenodd">        <g id="Group-Copy-2" transform="translate(0.000000, 2.000000)">            <path d="M0.537449219,6.09891314 C2.53094839,4.61494502 9.18225837,0.737830975 9.18225837,0.737830975 C9.42055129,0.575306786 9.71008711,0.503947706 9.99729054,0.536970943 C10.2844641,0.569984287 10.5498985,0.705144104 10.744464,0.91743069 C10.9390295,1.12971728 11.049569,1.40476582 11.0555495,1.69166632 C11.06153,1.97857672 10.9625528,2.25792877 10.7770577,2.47803093 L8.5114459,5.10960106 L21.9675653,5.10960106 C22.3640723,5.10960106 22.7444319,5.26595194 23.0248176,5.54424543 C23.3052032,5.82254881 23.4626897,6.20000105 23.4626897,6.59356918 C23.4626897,6.98714721 23.3052032,7.36456977 23.0248176,7.64286326 C22.7444319,7.92115674 22.3640723,8.07756698 21.9675653,8.07756698 L15.488693,8.07756698 L15.488693,10.0561911 C15.488693,10.3185567 15.3836356,10.5701388 15.196745,10.7557337 C15.0098545,10.9412297 14.7562814,11.0455032 14.4919434,11.0455032 L14.4919434,13.0241274 C14.4919434,13.286493 14.386886,13.538075 14.1999955,13.72367 C14.0131049,13.909166 13.7595318,14.0134395 13.4951938,14.0134395 L13.4951938,15.4974076 C13.4951938,15.8909559 13.3377074,16.2683785 13.0573217,16.546672 C12.7769361,16.8249655 12.3965764,16.9813757 12.0000694,16.9813757 L8.91014573,16.9813757 C7.98374673,16.9810789 7.06188295,16.8528641 6.17107787,16.6004906 L0.537449219,15.0027516" id="Path" fill="#FFF3F2" fill-rule="nonzero"></path>            <polygon id="Path-5" fill="#D52B1E" points="16.6992632 5.33646265 18.3922776 7.990006 22.6855629 7.990006 23.4626897 6.50495998 22.2969995 5.2112197"></polygon>            <path d="M14.5257315,10.5218179 C14.8224798,10.5218179 15.0630419,10.758695 15.0630419,11.0508978 C15.0630419,11.3431006 14.8224798,11.5799778 14.5257315,11.5799778 L12.5829145,11.5799778 C12.2861662,11.5799778 12.0456042,11.3431006 12.0456042,11.0508978 C12.0456042,10.758695 12.2861662,10.5218179 12.5829145,10.5218179 L14.5257315,10.5218179 Z" id="Path" fill="#000000" fill-rule="nonzero"></path>            <path d="M16.0799851,7.46092607 C16.3767334,7.46092607 16.6172954,7.69780323 16.6172954,7.990006 C16.6172954,8.28220878 16.3767334,8.51908594 16.0799851,8.51908594 L12.5829145,8.51908594 C12.2861662,8.51908594 12.0456042,8.28220878 12.0456042,7.990006 C12.0456042,7.69780323 12.2861662,7.46092607 12.5829145,7.46092607 L16.0799851,7.46092607 Z" id="Path" fill="#000000" fill-rule="nonzero"></path>            <path d="M13.3600413,13.5827097 C13.6567896,13.5827097 13.8973517,13.8195869 13.8973517,14.1117896 C13.8973517,14.4039924 13.6567896,14.6408696 13.3600413,14.6408696 L11.4172244,14.6408696 C11.1204761,14.6408696 10.879914,14.4039924 10.879914,14.1117896 C10.879914,13.8195869 11.1204761,13.5827097 11.4172244,13.5827097 L13.3600413,13.5827097 Z" id="Path" fill="#000000" fill-rule="nonzero"></path>            <path d="M10.0595972,0.0114602619 C10.4764859,0.0593856028 10.8615001,0.255434713 11.1433506,0.562956207 C11.4245657,0.869784488 11.5841178,1.26685633 11.5927467,1.68080915 C11.6013738,2.09468561 11.4585711,2.49786349 11.1869107,2.82016073 L9.6710083,4.58042361 L21.9675653,4.58052113 C22.4584042,4.58052113 22.9308127,4.75638218 23.2990172,5.07258869 L23.4062667,5.1716255 C23.7865943,5.54912868 24,6.06055511 24,6.59356918 C24,7.1265905 23.7865959,7.63799185 23.4062599,8.01548986 C23.0250957,8.39380993 22.507468,8.60664692 21.9675653,8.60664692 L16.0255984,8.60636918 L16.0260033,10.0561911 C16.0260033,10.4132914 15.8988563,10.7575814 15.6691055,11.0297807 L15.5781874,11.1283603 C15.4503333,11.2552604 15.3020999,11.3575031 15.141062,11.4319396 L15.0290668,11.4775096 L15.0292537,13.0241274 C15.0292537,13.3812276 14.9021067,13.7255177 14.6723559,13.9977169 L14.5814378,14.0962966 C14.4535837,14.2231966 14.3053503,14.3254394 14.1443124,14.3998758 L14.0318189,14.4460008 L14.0325041,15.4974076 C14.0325041,15.9819503 13.856134,16.4486441 13.5383175,16.81311 L13.4387641,16.9192986 C13.0575999,17.2976187 12.5399721,17.5104556 12.0000694,17.5104556 L8.90997092,17.5104556 C7.93342539,17.5101428 6.9616101,17.3749992 6.02236743,17.1089029 L0.388738772,15.5111639 C0.103582445,15.4302914 -0.0610024973,15.1371074 0.0211280146,14.856319 C0.103258527,14.5755306 0.401003339,14.4134668 0.686159666,14.4943392 L6.31964403,16.0920373 C7.16227876,16.3307637 8.03419592,16.4520151 8.91014573,16.4522958 L12.0000694,16.4522958 C12.2531447,16.4522958 12.4962468,16.3523376 12.6758794,16.1740454 C12.8562971,15.9949739 12.9578835,15.7515374 12.9578835,15.4974076 L12.9578835,14.0134395 C12.9578835,13.7455869 13.1600224,13.5242233 13.422284,13.4891894 L13.4951938,13.4843595 C13.6161032,13.4843595 13.7324178,13.4365359 13.8184522,13.3511435 C13.9055164,13.2646829 13.9546331,13.1470118 13.9546331,13.0241274 L13.9546331,11.0455032 C13.9546331,10.7776507 14.156772,10.556287 14.4190336,10.5212532 L14.4919434,10.5164233 C14.6128528,10.5164233 14.7291674,10.4685997 14.8152018,10.3832073 C14.902266,10.2967466 14.9513827,10.1790755 14.9513827,10.0561911 L14.9513827,8.07756698 C14.9513827,7.78536421 15.1919447,7.54848705 15.488693,7.54848705 L21.9675653,7.54848705 C22.2206405,7.54848705 22.4637426,7.44852889 22.6433752,7.27023665 C22.8237947,7.09116339 22.9253794,6.84772613 22.9253794,6.59356918 C22.9253794,6.3394108 22.8237864,6.09594336 22.6433752,5.91687204 C22.4637763,5.73861327 22.2206884,5.63868099 21.9675653,5.63868099 L8.5114459,5.63868099 C8.05376656,5.63868099 7.80563431,5.11123524 8.10159288,4.76747126 L10.3635788,2.14015777 C10.466591,2.01792698 10.5216845,1.86238044 10.5183524,1.70252388 C10.5150213,1.54272539 10.4535273,1.38968713 10.3455774,1.27190517 C10.2382956,1.15485217 10.0924405,1.08058276 9.93497186,1.06248024 C9.80392928,1.0474127 9.67193433,1.07204885 9.53717315,1.14411999 L8.02129817,2.03757236 C7.16012301,2.54773156 6.29899046,3.06309509 5.47484073,3.56316974 L4.5111982,4.15141453 L3.54121802,4.7522556 C2.32068099,5.5151842 1.39846542,6.12122377 0.861474458,6.52096181 C0.624757439,6.69717483 0.287789339,6.65106609 0.108835141,6.41797504 C-0.0701190569,6.184884 -0.0232930383,5.85307749 0.213423981,5.67686447 L0.442436847,5.51018157 C1.05818856,5.07071461 1.9953748,4.46200862 3.19297409,3.71688329 L4.29739447,3.03606346 L5.53789962,2.28329046 C5.74884839,2.15615856 5.96151401,2.02840353 6.17532331,1.90034298 L8.31836397,0.628488847 L8.87631524,0.302894272 C9.1836014,0.0933142608 9.5499523,-0.0118445659 9.9205367,0.00106012865 L10.0595972,0.0114602619 Z" id="Path" fill="#000000" fill-rule="nonzero"></path>            <path d="M22.6855629,17.1752512 C22.6855629,18.4431141 21.6417683,19.4709201 20.3541825,19.4709201 C19.0665967,19.4709201 18.0228021,18.4431141 18.0228021,17.1752512 C18.0228021,15.9068942 20.3541825,12.5839135 20.3541825,12.5839135 C20.3541825,12.5839135 22.6855629,15.9068942 22.6855629,17.1752512 Z" id="Path" fill="#D52B1E"></path>            <path d="M19.912108,12.2831861 L19.672972,12.6336078 C19.6316841,12.6952532 19.5869867,12.7624632 19.5393024,12.8347526 C19.2614992,13.2559025 18.9836627,13.6972564 18.7237284,14.1384548 C18.5747187,14.3913759 18.4357152,14.6374234 18.3085673,14.8745883 C17.7824051,15.8560218 17.4854918,16.6212349 17.4854918,17.1752512 C17.4854918,18.7353169 18.7698484,20 20.3541825,20 C21.9385166,20 23.2228732,18.7353169 23.2228732,17.1752512 C23.2228732,16.6212349 22.9259599,15.8560218 22.3997977,14.8745883 C22.2726498,14.6374234 22.1336463,14.3913759 21.9846365,14.1384548 C21.811347,13.8443225 21.630101,13.5501211 21.4462126,13.2618831 L21.1690626,12.8347526 C21.0021675,12.5817396 20.871863,12.3909494 20.796257,12.2831861 C20.5826429,11.978716 20.1257221,11.978716 19.912108,12.2831861 Z M20.1725882,13.8240363 L20.3532961,13.5433118 L20.2678588,13.4111419 C20.5364728,13.8183609 20.8050536,14.2450119 21.0551088,14.6694421 C21.1972495,14.910704 21.329361,15.1445521 21.449469,15.3685858 L21.6171427,15.6908844 C21.9576834,16.3672354 22.1482526,16.8956549 22.1482526,17.1752512 C22.1482526,18.1509113 21.34502,18.9418401 20.3541825,18.9418401 C19.363345,18.9418401 18.5601124,18.1509113 18.5601124,17.1752512 C18.5601124,16.85264 18.8138288,16.1987554 19.258896,15.3685858 C19.379004,15.1445521 19.5111155,14.910704 19.6532562,14.6694421 C19.8199596,14.3864887 19.9948967,14.1025482 20.1725882,13.8240363 Z" id="Path" fill="#000000" fill-rule="nonzero"></path>            <path d="M17.5801015,4.63102074 C17.8562438,4.63102074 18.0801015,4.83631427 18.0801015,5.08955668 L18.0801015,8.1504485 C18.0801015,8.4036909 17.8562438,8.60898444 17.5801015,8.60898444 C17.3039591,8.60898444 17.0801015,8.4036909 17.0801015,8.1504485 L17.0801015,5.08955668 C17.0801015,4.83631427 17.3039591,4.63102074 17.5801015,4.63102074 Z" id="Path" fill="#000000" fill-rule="nonzero" transform="translate(17.580101, 6.620003) rotate(-33.000000) translate(-17.580101, -6.620003) "></path>            <path d="M20.1155207,4.60696159 C20.3722884,4.59259684 20.5922659,4.7859149 20.6068542,5.03874957 L20.7730494,7.91915101 C20.7876376,8.17198569 20.5913123,8.38859362 20.3345445,8.40295837 C20.0777767,8.41732313 19.8577992,8.22400507 19.843211,7.9711704 L19.6770158,5.09076895 C19.6624276,4.83793428 19.8587529,4.62132635 20.1155207,4.60696159 Z" id="Path" fill="#000000" fill-rule="nonzero" transform="translate(20.225033, 6.504960) scale(-1, 1) rotate(-23.000000) translate(-20.225033, -6.504960) "></path>            <path d="M22.1396018,4.72162928 L22.2084341,4.72633697 C22.4630059,4.76232409 22.6397501,4.99470754 22.6032031,5.24537993 L22.2169203,7.89486059 C22.1803734,8.14553298 21.944375,8.31956976 21.6898031,8.28358264 C21.4352313,8.24759551 21.2584872,8.01521206 21.2950341,7.76453968 L21.6813169,5.11505901 C21.7145414,4.88717503 21.9126018,4.72262624 22.1396018,4.72162928 Z" id="Path-Copy" fill="#000000" fill-rule="nonzero" transform="translate(21.949119, 6.504962) rotate(-23.000000) translate(-21.949119, -6.504962) "></path>        </g>    </g></svg>