<svg width="16px" height="16px" viewBox="0 0 24 24" version="1.1" xmlns="http://www.w3.org/2000/svg" xmlns:xlink="http://www.w3.org/1999/xlink">    <title>icons/prod cat/lifestyle/clr-motor</title>    <g id="icons/prod-cat/lifestyle/clr-motor" stroke="none" stroke-width="1" fill="none" fill-rule="evenodd">        <g id="Group" transform="translate(0.541590, 3.530920)" fill-rule="nonzero">            <path d="M18.681556,4.06058994 L20.3237888,3.09051994 C21.0046841,2.68856863 21.87504,2.92763917 22.267783,3.62449894 C22.6605259,4.3213587 22.4269323,5.21212107 21.7460369,5.61407238 L18.6949464,7.4171692 L18.681556,4.06058994 Z" id="Path" fill="#D52B1E"></path>            <path d="M20.0947849,2.68418904 L18.4524432,3.65432338 C18.3100248,3.73845017 18.2225551,3.89421339 18.2232227,4.06250509 L18.2366169,7.41908435 C18.238054,7.77934061 18.6193009,8.00353819 18.9241366,7.82339003 L21.9752272,6.02029321 C22.8752055,5.48901124 23.1840235,4.31139588 22.6648052,3.39012576 C22.1455869,2.46885564 20.9949496,2.15279701 20.0947849,2.68418904 Z M21.8707607,3.85887211 L21.9157393,3.94888392 C22.1160476,4.40551567 21.9498074,4.95226282 21.517033,5.20774149 L19.1497435,6.60701493 L19.140806,4.33080666 L20.5529016,3.4967865 C21.0144187,3.22434025 21.6044931,3.3864227 21.8707607,3.85887211 Z" id="Path" fill="#000000"></path>            <path d="M4.23526406,7.42304248 L1.17078316,5.61407238 C0.489887792,5.21212107 0.256294131,4.3213587 0.649037115,3.62449894 C1.0417801,2.92763917 1.91213595,2.68856863 2.59303132,3.09051994 L4.23526406,4.06058994 L4.23526406,7.42304248 Z" id="Path" fill="#D52B1E"></path>            <path d="M0.252014878,3.39012576 C-0.267203469,4.31139588 0.0416145612,5.48901124 0.941779255,6.02040327 L4.00626751,7.82937772 C4.31182302,8.00974784 4.69359739,7.78405071 4.69359739,7.42304248 L4.69359739,4.06058994 C4.69359739,3.89298125 4.60621606,3.73810804 4.4643769,3.65432338 L2.82203522,2.68418904 C1.92187053,2.15279701 0.771233226,2.46885564 0.252014878,3.39012576 Z M2.36402741,3.49685083 L3.77628504,4.33080666 L3.77628504,6.61053303 L1.39977971,5.20773715 C0.938161023,4.93523091 0.779791731,4.33132152 1.04605935,3.85887211 C1.31232697,3.3864227 1.90240137,3.22434025 2.36402741,3.49685083 Z" id="Path" fill="#000000"></path>            <path d="M3.87181127,6.29243617 L4.55567638,2.09010465 C4.70888068,1.15472837 5.49980236,0.469413784 6.4265018,0.469079501 L16.4903183,0.469079501 C17.4170177,0.469413784 18.2079394,1.15472837 18.3611437,2.09010465 L19.0450088,6.29145729 L3.87181127,6.29243617 Z" id="Path" fill="#FFF3F2"></path>            <path d="M4.37394999,6.29243617 L18.5428701,6.29243617 C20.6558115,6.29243617 22.3686889,8.04547405 22.3686889,10.2079559 L22.3686889,12.1030674 C22.3686889,13.1843083 21.5122502,14.0608272 20.4557795,14.0608272 L2.46773575,14.0608272 C1.41126505,14.0608272 0.554826326,13.1843083 0.554826326,12.1030674 L0.554826326,10.2040403 C0.556931935,8.04576035 2.26511632,6.29621208 4.37394999,6.29243617 Z" id="Path" fill="#D52B1E"></path>            <path d="M18.5428701,5.82335667 L4.37394999,5.82335667 C2.01167606,5.82758566 0.0988510824,7.78672991 0.0964929922,10.203572 L0.0964929922,12.1030674 C0.0964929922,13.4433738 1.15813454,14.5299067 2.46773575,14.5299067 L20.4557795,14.5299067 C21.7653807,14.5299067 22.8270223,13.4433738 22.8270223,12.1030674 L22.8270223,10.2079559 C22.8270223,7.78640859 20.908942,5.82335667 18.5428701,5.82335667 Z M18.5428701,6.76151495 C20.402681,6.76151495 21.9103556,8.3045395 21.9103556,10.2079559 L21.9103556,12.1030674 C21.9103556,12.9252429 21.2591197,13.5917477 20.4557795,13.5917477 L2.46773575,13.5917477 C1.66439556,13.5917477 1.01315966,12.9252429 1.01315966,12.1030674 L1.01315966,10.2040403 C1.01501279,8.30479079 2.51855658,6.76483851 4.37475184,6.76151495 L18.5428701,6.76151495 Z" id="Path" fill="#000000"></path>            <ellipse id="Oval" fill="#FFF3F2" cx="3.87181127" cy="10.6601984" rx="1.42224816" ry="1.45559445"></ellipse>            <path d="M3.87181127,8.73552444 C2.83319479,8.73552444 1.99122978,9.59723032 1.99122978,10.6601984 C1.99122978,11.7231665 2.83319479,12.5848723 3.87181127,12.5848723 C4.91042774,12.5848723 5.75239276,11.7231665 5.75239276,10.6601984 C5.75239276,9.59723032 4.91042774,8.73552444 3.87181127,8.73552444 Z M3.87181127,9.67368344 C4.40416672,9.67368344 4.83572609,10.1153612 4.83572609,10.6601984 C4.83572609,11.2050356 4.40416672,11.6467133 3.87181127,11.6467133 C3.33945581,11.6467133 2.90789644,11.2050356 2.90789644,10.6601984 C2.90789644,10.1153612 3.33945581,9.67368344 3.87181127,9.67368344 Z" id="Oval" fill="#000000"></path>            <ellipse id="Oval" fill="#FFF3F2" cx="19.0450088" cy="10.6601984" rx="1.42224816" ry="1.45559445"></ellipse>            <path d="M19.0450088,8.73552444 C18.0063923,8.73552444 17.1644273,9.59723032 17.1644273,10.6601984 C17.1644273,11.7231665 18.0063923,12.5848723 19.0450088,12.5848723 C20.0836253,12.5848723 20.9255903,11.7231665 20.9255903,10.6601984 C20.9255903,9.59723032 20.0836253,8.73552444 19.0450088,8.73552444 Z M19.0450088,9.67368344 C19.5773643,9.67368344 20.0089236,10.1153612 20.0089236,10.6601984 C20.0089236,11.2050356 19.5773643,11.6467133 19.0450088,11.6467133 C18.5126534,11.6467133 18.081094,11.2050356 18.081094,10.6601984 C18.081094,10.1153612 18.5126534,9.67368344 19.0450088,9.67368344 Z" id="Oval" fill="#000000"></path>            <path d="M16.4904798,0 L6.4265018,0 C5.27581289,0.000415052721 4.29385801,0.851255299 4.10364992,2.01255525 L3.41970551,6.21537241 C3.37317726,6.50128721 3.58862725,6.76151567 3.87184016,6.76151567 L19.0450377,6.76053679 C19.3282342,6.76051852 19.5436478,6.50027252 19.4971117,6.21437606 L18.8132466,2.01302342 C18.6229621,0.851255299 17.6410072,0.000415052721 16.4904798,0 Z M16.4901567,0.938158972 L16.6002251,0.94246838 C17.2548346,0.993652522 17.7990325,1.49554105 17.9091172,2.16765406 L18.5038738,5.82221476 L4.41218627,5.82291838 L5.00778214,2.16716841 C5.12390335,1.45820143 5.72379183,0.938412515 6.42666335,0.938158972 L16.4901567,0.938158972 Z" id="Path" fill="#000000"></path>            <path d="M5.29405942,14.0569117 L5.29405942,15.5134851 C5.29405942,16.3173877 4.65729723,16.9690795 3.87181127,16.9690795 C3.0863253,16.9690795 2.44956311,16.3173877 2.44956311,15.5134851 L2.44956311,14.0569117 L5.29405942,14.0569117 Z" id="Path" fill="#FFF3F2"></path>            <path d="M5.29405942,13.5878322 L2.44956311,13.5878322 C2.1964326,13.5878322 1.99122978,13.7978463 1.99122978,14.0569117 L1.99122978,15.5134851 C1.99122978,16.5764531 2.83319479,17.438159 3.87181127,17.438159 C4.91042774,17.438159 5.75239276,16.5764531 5.75239276,15.5134851 L5.75239276,14.0569117 C5.75239276,13.7978463 5.54718993,13.5878322 5.29405942,13.5878322 Z M4.83518811,14.5255221 L4.83572609,15.5134851 C4.83572609,16.0583222 4.40416672,16.5 3.87181127,16.5 L3.77897984,16.495484 C3.2901774,16.447681 2.90789644,16.026273 2.90789644,15.5134851 L2.90743811,14.5255221 L4.83518811,14.5255221 Z" id="Path" fill="#000000"></path>            <path d="M20.467257,14.0569117 L20.467257,15.5134851 C20.467257,16.3173877 19.8304948,16.9690795 19.0450088,16.9690795 C18.2595228,16.9690795 17.6227607,16.3173877 17.6227607,15.5134851 L17.6227607,14.0569117 L20.467257,14.0569117 Z" id="Path" fill="#FFF3F2"></path>            <path d="M20.467257,13.5878322 L17.6227607,13.5878322 C17.3696301,13.5878322 17.1644273,13.7978463 17.1644273,14.0569117 L17.1644273,15.5134851 C17.1644273,16.5764531 18.0063923,17.438159 19.0450088,17.438159 C20.0836253,17.438159 20.9255903,16.5764531 20.9255903,15.5134851 L20.9255903,14.0569117 C20.9255903,13.7978463 20.7203875,13.5878322 20.467257,13.5878322 Z M20.0083857,14.5255221 L20.0089236,15.5134851 C20.0089236,16.0583222 19.5773643,16.5 19.0450088,16.5 L18.9521774,16.495484 C18.463375,16.447681 18.081094,16.026273 18.081094,15.5134851 L18.0806357,14.5255221 L20.0083857,14.5255221 Z" id="Path" fill="#000000"></path>        </g>    </g></svg>