<svg width="16px" height="16px" viewBox="0 0 24 24" version="1.1" xmlns="http://www.w3.org/2000/svg" xmlns:xlink="http://www.w3.org/1999/xlink">    <title>icons/prod cat/hospital/clr-hospitalisation</title>    <g id="icons/prod-cat/hospital/clr-hospitalisation" stroke="none" stroke-width="1" fill="none" fill-rule="evenodd">        <g id="Group-Copy-6" transform="translate(12.000000, 12.242515) scale(-1, 1) translate(-12.000000, -12.242515) translate(0.494664, 2.494664)">            <path d="M2.84905757,17.1154968 L0.974189284,17.1154968 C0.717418149,17.1105096 0.510459462,16.9035509 0.505336182,16.6467798 L0.505336182,12.7376794 C0.505076263,12.2379852 0.704171318,11.7588073 1.05855836,11.4065229 L2.3803405,10.0847408 L4.45206995,6.33500419 C4.61942041,6.0372562 4.93546831,5.85409208 5.27701199,5.85691278 L8.94237949,5.85691278 L8.94237949,3.9820445 C11.9865991,3.69588949 14.2697639,3.55281198 15.7918737,3.55281198 C17.1626271,3.55281198 19.097916,3.69588949 21.5977404,3.9820445 C21.8566057,3.9820445 22.0664575,4.19189628 22.0664575,4.45076157 C22.3590433,6.71825764 22.5053362,8.59625071 22.5053362,10.0847408 C22.5053362,11.6870907 22.3590433,13.8744371 22.0664575,16.6467798 C22.0614702,16.9035509 21.8545115,17.1105096 21.5977404,17.1154968 L19.7228721,17.1154968" id="Path" fill="#D52B1E"></path>            <polygon id="Rectangle" fill="#FFF3F2" points="4.72392585 6 9 6 9 10 3 10"></polygon>            <path d="M21.5592415,4.48311927 L21.5402699,4.48410148 L20.4613144,4.36583764 C18.6109698,4.17266763 17.1223907,4.07055586 15.9983573,4.05921112 L15.7918737,4.05814759 C14.4692316,4.05814759 12.5530975,4.16827843 10.0475426,4.38879322 L9.44708128,4.44287643 L9.44771509,5.85691278 C9.44771509,6.1127445 9.25760522,6.32417368 9.01095054,6.35763527 L8.94237949,6.36224839 L5.27283873,6.36223115 C5.11540845,6.36093099 4.96973012,6.4453582 4.8943853,6.57938342 L2.82265584,10.32912 L2.73766673,10.442067 L1.4148198,11.7649108 C1.1559573,12.0222374 1.0104818,12.3723015 1.01067179,12.7376794 L1.00999801,16.6100103 L2.84905757,16.6101612 C3.10488929,16.6101612 3.31631847,16.8002711 3.34978005,17.0469258 L3.35439317,17.1154968 C3.35439317,17.394586 3.12814672,17.6208324 2.84905757,17.6208324 L0.964376035,17.6208324 C0.436289866,17.6104802 0.0106372163,17.1849132 3.22009782e-07,16.6467798 L3.22009782e-07,12.7379422 C-0.000329321353,12.1035823 0.252446691,11.4953162 0.701232123,11.0491967 L1.972157,9.77787287 L4.01154788,6.08740698 C4.25071336,5.66188655 4.6872076,5.3884245 5.16587282,5.35499156 L5.27701199,5.35157717 L8.43641007,5.35113296 L8.43704388,3.9820445 C8.43704388,3.74498308 8.60102713,3.54331158 8.82590093,3.49026781 L8.89508669,3.47892675 L9.96329938,3.38162606 C12.4941015,3.15894398 14.4356025,3.04747638 15.7918737,3.04747638 C17.1853125,3.04747638 19.1379483,3.19183635 21.5977404,3.47670889 C22.1356948,3.47670889 22.5717931,3.91280713 22.567638,4.38609186 L22.6714116,5.22560582 C22.8974393,7.14198332 23.0106718,8.76103611 23.0106718,10.0847408 L23.0062535,10.5890135 C22.9797531,12.1538578 22.8341297,14.1858818 22.5716978,16.656593 C22.5614391,17.1847675 22.1357281,17.6104784 21.5977404,17.6208324 L19.7228721,17.6208324 C19.443783,17.6208324 19.2175365,17.394586 19.2175365,17.1154968 C19.2175365,16.8364077 19.443783,16.6101612 19.7228721,16.6101612 L21.5663767,16.6100103 L21.5639128,16.5937425 L21.6796599,15.4483419 C21.893321,13.2292436 22.0000003,11.4405076 22.0000003,10.0847408 C22.0000003,8.79282183 21.8873524,7.19474314 21.6587534,5.24810649 L21.5643553,4.47589169 L21.5592415,4.48311927 Z" id="Path" fill="#000000" fill-rule="nonzero"></path>            <circle id="Oval" fill="#000000" cx="4.72392585" cy="17.1154968" r="1.87486828"></circle>            <path d="M4.72392585,14.7352929 C3.40937554,14.7352929 2.34372196,15.8009465 2.34372196,17.1154968 C2.34372196,18.4300471 3.40937554,19.4957007 4.72392585,19.4957007 C6.03847616,19.4957007 7.10412974,18.4300471 7.10412974,17.1154968 C7.10412974,15.8009465 6.03847616,14.7352929 4.72392585,14.7352929 Z M4.72392585,15.7459641 C5.48029786,15.7459641 6.09345853,16.3591248 6.09345853,17.1154968 C6.09345853,17.8718688 5.48029786,18.4850295 4.72392585,18.4850295 C3.96755384,18.4850295 3.35439317,17.8718688 3.35439317,17.1154968 C3.35439317,16.3591248 3.96755384,15.7459641 4.72392585,15.7459641 Z" id="Oval" fill="#000000" fill-rule="nonzero"></path>            <circle id="Oval" fill="#000000" cx="17.8480038" cy="17.1154968" r="1.87486828"></circle>            <path d="M17.8480038,14.7352929 C16.5334535,14.7352929 15.4677999,15.8009465 15.4677999,17.1154968 C15.4677999,18.4300471 16.5334535,19.4957007 17.8480038,19.4957007 C19.1625541,19.4957007 20.2282077,18.4300471 20.2282077,17.1154968 C20.2282077,15.8009465 19.1625541,14.7352929 17.8480038,14.7352929 Z M17.8480038,15.7459641 C18.6043758,15.7459641 19.2175365,16.3591248 19.2175365,17.1154968 C19.2175365,17.8718688 18.6043758,18.4850295 17.8480038,18.4850295 C17.0916318,18.4850295 16.4784712,17.8718688 16.4784712,17.1154968 C16.4784712,16.3591248 17.0916318,15.7459641 17.8480038,15.7459641 Z" id="Oval" fill="#000000" fill-rule="nonzero"></path>            <path d="M15.9731356,16.6101612 C16.2522247,16.6101612 16.4784712,16.8364077 16.4784712,17.1154968 C16.4784712,17.394586 16.2522247,17.6208324 15.9731356,17.6208324 L6.59879413,17.6208324 C6.31970499,17.6208324 6.09345853,17.394586 6.09345853,17.1154968 C6.09345853,16.8364077 6.31970499,16.6101612 6.59879413,16.6101612 L15.9731356,16.6101612 Z" id="Path" fill="#000000" fill-rule="nonzero"></path>            <path d="M8.94237949,5.36095152 C9.22146864,5.36095152 9.44771509,5.58719797 9.44771509,5.86628712 L9.44771509,17.1154968 C9.44771509,17.394586 9.22146864,17.6208324 8.94237949,17.6208324 C8.66329034,17.6208324 8.43704388,17.394586 8.43704388,17.1154968 L8.43704388,5.86628712 C8.43704388,5.58719797 8.66329034,5.36095152 8.94237949,5.36095152 Z" id="Path" fill="#000000" fill-rule="nonzero"></path>            <path d="M17.4085817,2.38020389 C17.4085817,1.34474273 16.5691746,0.505335606 15.5337134,0.505335606 C14.4982523,0.505335606 13.6588451,1.34474273 13.6588451,2.38020389 L13.6588451,3.31763803 L17.4085817,3.31763803 L17.4085817,2.38020389 Z" id="Path" fill="#D52B1E"></path>            <path d="M15.5337134,0 C14.2191631,0 13.1535095,1.06565358 13.1535095,2.38020389 L13.1535095,3.31763803 C13.1535095,3.59672718 13.379756,3.82297364 13.6588451,3.82297364 L17.4085817,3.82297364 C17.6876709,3.82297364 17.9139173,3.59672718 17.9139173,3.31763803 L17.9139173,2.38020389 C17.9139173,1.06565358 16.8482637,0 15.5337134,0 Z M15.5337134,1.01067121 L15.6359233,1.01442766 C16.3445605,1.06670898 16.9032461,1.65821242 16.9032461,2.38020389 L16.9030997,2.81168731 L14.1641807,2.81168731 L14.1641807,2.38020389 C14.1641807,1.62383188 14.7773414,1.01067121 15.5337134,1.01067121 Z" id="Path" fill="#000000" fill-rule="nonzero"></path>            <path d="M18.785438,8.67858955 C18.785438,8.41972426 18.5755862,8.20987248 18.3167209,8.20987248 L16.9105697,8.20987248 L16.9105697,6.80372126 C16.9105697,6.54485597 16.7007179,6.33500419 16.4418526,6.33500419 L14.5669843,6.33500419 C14.308119,6.33500419 14.0982673,6.54485597 14.0982673,6.80372126 L14.0982673,8.20987248 L12.6921161,8.20987248 C12.4332508,8.20987248 12.223399,8.41972426 12.223399,8.67858955 L12.223399,10.5534578 C12.223399,10.8123231 12.4332508,11.0221749 12.6921161,11.0221749 L14.0982673,11.0221749 L14.0982673,12.4283261 C14.0982673,12.6871914 14.308119,12.8970432 14.5669843,12.8970432 L16.4418526,12.8970432 C16.7007179,12.8970432 16.9105697,12.6871914 16.9105697,12.4283261 L16.9105697,11.0221749 L18.3167209,11.0221749 C18.5755862,11.0221749 18.785438,10.8123231 18.785438,10.5534578 L18.785438,8.67858955 Z" id="Path" fill="#FFF3F2"></path>            <path d="M16.4418526,5.82966859 L14.5669843,5.82966859 L14.4731766,5.83412753 C13.9792332,5.88132671 13.5929317,6.2974112 13.5929317,6.80372126 L13.5925216,7.70412679 L12.6921161,7.70453687 C12.1541616,7.70453687 11.7180634,8.14063511 11.7180634,8.67858955 L11.7180634,10.5534578 L11.7225223,10.6472656 C11.7697215,11.141209 12.185806,11.5275105 12.6921161,11.5275105 L13.5925216,11.5271591 L13.5929317,12.4283261 C13.5929317,12.9662806 14.0290299,13.4023788 14.5669843,13.4023788 L16.4418526,13.4023788 L16.5356604,13.3979199 C17.0296037,13.3507207 17.4159053,12.9346362 17.4159053,12.4283261 L17.4155539,11.5271591 L18.3167209,11.5275105 C18.8546753,11.5275105 19.2907736,11.0914123 19.2907736,10.5534578 L19.2907736,8.67858955 L19.2863146,8.58478177 C19.2391155,8.09083842 18.823031,7.70453687 18.3167209,7.70453687 L17.4155539,7.70412679 L17.4159053,6.80372126 C17.4159053,6.26576682 16.9798071,5.82966859 16.4418526,5.82966859 Z M16.4048827,6.8403398 L16.4052341,8.20987248 L16.4098472,8.27844352 C16.4433088,8.52509821 16.654738,8.71520808 16.9105697,8.71520808 L18.2800147,8.71479801 L18.2800147,10.5164879 L16.9105697,10.5168393 L16.8419986,10.5214524 C16.595344,10.554914 16.4052341,10.7663432 16.4052341,11.0221749 L16.4048827,12.3916199 L14.6031928,12.3916199 L14.6036029,11.0221749 L14.5989898,10.9536039 C14.5655282,10.7069492 14.354099,10.5168393 14.0982673,10.5168393 L12.7287346,10.5164879 L12.7287346,8.71479801 L14.0982673,8.71520808 L14.1668383,8.71059496 C14.413493,8.67713338 14.6036029,8.4657042 14.6036029,8.20987248 L14.6031928,6.8403398 L16.4048827,6.8403398 Z" id="Path" fill="#000000" fill-rule="nonzero"></path>            <path d="M8.94237949,9.57940515 C9.22146864,9.57940515 9.44771509,9.80565161 9.44771509,10.0847408 C9.44771509,10.3638299 9.22146864,10.5900764 8.94237949,10.5900764 L2.3803405,10.5900764 C2.10125135,10.5900764 1.87500489,10.3638299 1.87500489,10.0847408 C1.87500489,9.80565161 2.10125135,9.57940515 2.3803405,9.57940515 L8.94237949,9.57940515 Z" id="Path" fill="#000000" fill-rule="nonzero"></path>        </g>    </g></svg>