<svg width="16px" height="16px" viewBox="0 0 24 24" version="1.1" xmlns="http://www.w3.org/2000/svg" xmlns:xlink="http://www.w3.org/1999/xlink">    <title>icons/prod cat/lifestyle/clr-house</title>    <g id="icons/prod-cat/lifestyle/clr-house" stroke="none" stroke-width="1" fill="none" fill-rule="evenodd">        <g id="Group-Copy-20" transform="translate(1.000000, 2.000000)">            <polygon id="Path-3" fill="#FFF3F2" points="11 3.02886867e-14 3.14285714 7.79474962 18.8571429 7.79474962"></polygon>            <path d="M10.999285,-0.600868499 C11.5725803,-0.598916321 12.1216199,-0.364753022 12.5238667,0.0483853108 L22.4165334,10.1278778 C22.6467491,10.3624412 22.6468874,10.7428846 22.4168424,10.977622 C22.1867974,11.2123594 21.8136823,11.2125005 21.5834666,10.9779371 L11.6891378,0.896744309 C11.5055407,0.708179168 11.2559711,0.601738638 10.9953972,0.600856724 C10.7347992,0.599985642 10.4845462,0.704744989 10.3011502,0.890629654 L0.416864469,10.9775995 C0.186831626,11.2123493 -0.186283417,11.2125105 -0.416511306,10.9779596 C-0.646739195,10.7434086 -0.646897311,10.3629652 -0.416864469,10.1282154 L9.46883839,0.0398042364 C9.87542273,-0.372308248 10.4259655,-0.602773037 10.999285,-0.600868499 Z" id="Path" fill="#000000" fill-rule="nonzero"></path>            <polyline id="Path" fill="#FFF3F2" points="18.8571429 7.35045741 18.8571429 20.1666667 3.14285714 20.1666667 3.14285714 7.34511643"></polyline>            <path d="M3.14285714,6.74425648 C3.46831066,6.74425648 3.73214286,7.01327064 3.73214286,7.34511643 L3.73214286,19.5658067 L18.2678571,19.5658067 L18.2678571,7.35045741 C18.2678571,7.04626543 18.4895495,6.79486948 18.7771803,6.7550826 L18.8571429,6.74959745 C19.1825964,6.74959745 19.4464286,7.01861162 19.4464286,7.35045741 L19.4464286,20.1666667 C19.4464286,20.4985125 19.1825964,20.7675266 18.8571429,20.7675266 L3.14285714,20.7675266 C2.81740363,20.7675266 2.55357143,20.4985125 2.55357143,20.1666667 L2.55357143,7.34511643 C2.55357143,7.01327064 2.81740363,6.74425648 3.14285714,6.74425648 Z" id="Path" fill="#000000" fill-rule="nonzero"></path>            <path d="M14.1428571,20.1666667 L14.1428571,15.359787 C14.1428571,13.5899428 12.7357521,12.1552006 11,12.1552006 C9.26424793,12.1552006 7.85714286,13.5899428 7.85714286,15.359787 L7.85714286,20.1666667" id="Path" fill="#D52B1E"></path>            <path d="M11,11.5543407 C13.0612056,11.5543407 14.7321429,13.2580971 14.7321429,15.359787 L14.7321429,20.1666667 C14.7321429,20.4985125 14.4683107,20.7675266 14.1428571,20.7675266 C13.8174036,20.7675266 13.5535714,20.4985125 13.5535714,20.1666667 L13.5535714,15.359787 C13.5535714,13.9217886 12.4102986,12.7560606 11,12.7560606 C9.58970144,12.7560606 8.44642857,13.9217886 8.44642857,15.359787 L8.44642857,20.1666667 C8.44642857,20.4985125 8.18259637,20.7675266 7.85714286,20.7675266 C7.53168934,20.7675266 7.26785714,20.4985125 7.26785714,20.1666667 L7.26785714,15.359787 C7.26785714,13.2580971 8.93879442,11.5543407 11,11.5543407 Z" id="Path" fill="#000000" fill-rule="nonzero"></path>        </g>    </g></svg>