<svg width="16px" height="16px" viewBox="0 0 24 24" version="1.1" xmlns="http://www.w3.org/2000/svg" xmlns:xlink="http://www.w3.org/1999/xlink"><title>icons/prod cat/whole life/clr-whole-life</title><g id="icons/prod-cat/whole-life/clr-whole-life" stroke="none" stroke-width="1" fill="none" fill-rule="evenodd"><path d="M0.392331429,2.74389143 C0.506977143,1.75545143 1.10664571,0.93944 2.07824,0.724571429 C3.59376,0.389411429 6.53131429,0 12,0 C17.4686857,0 20.4062286,0.389411429 21.9217714,0.724571429 C22.8933714,0.93944 23.4930286,1.75545143 23.6076571,2.74389143 C23.7810286,4.23862857 24,6.70034286 24,9.6 L24,9.6 C24,15.0170286 21.1410286,20.0858286 16.3244571,22.5647429 C14.7154857,23.3928 13.1452,24 12,24 C10.8548,24 9.28451429,23.3928 7.67554286,22.5647429 C2.85896,20.0858286 0,15.0170286 0,9.6 L0,9.6 C0,6.70034286 0.218954286,4.23862857 0.392331429,2.74389143 Z" id="Path" fill="#FFF3F2"></path><path d="M12,0 L11.6544639,0.00054709866 C7.32051954,0.0143717584 4.32197528,0.281187592 2.40647347,0.704804295 C1.27587386,0.954836975 0.517641016,1.89544903 0.378342492,3.09643795 C0.147310498,5.08823513 0,7.33368777 0,9.70746269 L0.00263143851,9.98939653 C0.103489469,15.3435745 2.99667961,20.1883032 7.62329371,22.5694477 C9.41011782,23.4890368 10.8848107,24 12,24 C13.1151893,24 14.5898822,23.4890368 16.3767016,22.5694501 C21.0905071,20.1434258 24,15.1628007 24,9.70746269 L23.9989263,9.36177735 C23.9849222,7.1080182 23.840518,4.98345727 23.6216465,3.09643722 C23.4823694,1.89545333 22.7241446,0.954837177 21.5935358,0.704803927 L21.22284,0.627468555 C19.2421319,0.237606929 16.2422018,0 12,0 Z M11.6570297,1.07517056 L12.0008518,1.07462619 L13.1778285,1.08106009 C16.9859057,1.12367934 19.6487081,1.37529963 21.3614899,1.75407872 C22.0195055,1.89959837 22.4651313,2.45241971 22.554175,3.22024102 C22.7687848,5.07051848 22.9105768,7.15664798 22.9243124,9.36678958 L22.9253757,9.70913568 C22.9253757,14.7679145 20.233591,19.3758506 15.8849427,21.6139418 C14.2393946,22.4608232 12.8986553,22.9253731 12,22.9253731 C11.1013447,22.9253731 9.7606054,22.4608232 8.11505212,21.6139392 C3.84700789,19.4173371 1.17062111,14.9356518 1.07713913,9.97421419 L1.07460304,9.70240246 C1.07460304,7.378183 1.21927634,5.17329229 1.44581275,3.22025289 C1.53487037,2.45242556 1.98050723,1.89959881 2.6385217,1.75407858 C4.47004131,1.34903469 7.39500156,1.08876649 11.6570297,1.07517056 Z" id="Path" fill="#000000" fill-rule="nonzero"></path><path d="M18.2333898,12.1852778 C18.9361258,11.1109485 19.1241404,9.73680711 18.8318042,8.4770689 C18.2072706,5.60749632 14.7488069,5.29205897 12.5945336,7.21507834 C12.4239214,7.3663586 12.2722007,7.54076767 12.1043183,7.714668 C11.9364359,7.54076767 11.7846841,7.3663586 11.614103,7.21507834 C9.45982968,5.29205897 6.00135663,5.60749632 5.37680442,8.4770689 C5.08448684,9.73680711 5.30313099,11.0916849 5.97521885,12.1852778 C7.20903641,14.071628 9.41149991,15.4733776 11.1924428,16.9901508 C11.7125617,17.433091 12.4960438,17.433091 13.0161628,16.9901508 C14.7971367,15.4733776 16.9995847,14.071628 18.2333898,12.1852778 Z" id="Path" fill="#D52B1E" fill-rule="nonzero"></path><path d="M13.8957481,17.409002 L15.3556522,16.2540766 C16.9669047,14.9623209 17.8137697,14.1366693 18.5166374,13.0620633 C19.2898247,11.8800293 19.5256945,10.3557049 19.1922442,8.91879729 C18.4943647,5.7119696 14.5943257,5.07746065 12.0324477,7.36432977 L11.9167504,7.47188383 L11.799829,7.36311909 C9.28423389,5.11756068 5.47569724,5.69060457 4.67942364,8.7595344 L4.64136353,8.91880498 C4.31567243,10.3223659 4.55877009,11.8287751 5.308487,13.0486828 C6.05292728,14.1872273 6.94764245,15.0403237 8.71329637,16.4417647 L9.93786104,17.4089963 C10.2046427,17.6228398 10.4276479,17.8062263 10.6402263,17.9872727 C11.3705487,18.6092249 12.4630577,18.6092249 13.1933664,17.9872844 L13.455608,17.7671023 C13.5913646,17.6546511 13.735676,17.5373093 13.8957481,17.409002 Z M13.5415389,16.253292 C13.1016567,16.6008935 12.7739646,16.8667683 12.46395,17.1307934 C12.1540308,17.3947247 11.6795756,17.3947247 11.3696464,17.1307849 L11.0973956,16.9021661 C10.9100677,16.7469661 10.7081473,16.5837079 10.4740055,16.3974923 L9.19753129,15.3889932 C7.66786256,14.163208 6.88038893,13.3971005 6.25846499,12.4462579 C5.70911606,11.5519809 5.50410633,10.43846 5.69398936,9.383277 L5.73893744,9.1655783 C6.23266439,6.89709648 9.07108344,6.43530741 11.0520171,8.20359459 L11.1574819,8.30278181 L11.5121305,8.67423548 L11.9168187,9.09343024 L12.5505095,8.43186291 C12.6453551,8.33174756 12.7134846,8.26401406 12.7802216,8.20483895 C14.7625536,6.43530775 17.6009599,6.89709651 18.0946713,9.16557489 C18.3623558,10.3193181 18.1751839,11.5289292 17.575153,12.4462449 C16.9532077,13.3971298 16.1657208,14.163248 14.6359844,15.3890799 L13.5415389,16.253292 Z" id="Path" fill="#000000" fill-rule="nonzero"></path></g></svg>