<svg width="16px" height="16px" viewBox="0 0 24 24" version="1.1" xmlns="http://www.w3.org/2000/svg" xmlns:xlink="http://www.w3.org/1999/xlink">    <title>icons/prod cat/savings + retirement/clr-retirement</title>    <g id="icons/prod-cat/savings-+-retirement/clr-retirement" stroke="none" stroke-width="1" fill="none" fill-rule="evenodd">        <g id="Group-14-Copy" transform="translate(0.000000, 3.000000)">            <circle id="Oval" fill="#FFF3F2" fill-rule="nonzero" cx="16.5130619" cy="12.5071751" r="5.5"></circle>            <path d="M16.5315522,5.98277983 C12.9417013,5.98277983 10.0315522,8.89292895 10.0315522,12.4827798 C10.0315522,16.0726307 12.9417013,18.9827798 16.5315522,18.9827798 C20.121403,18.9827798 23.0315522,16.0726307 23.0315522,12.4827798 C23.0315522,8.89292895 20.121403,5.98277983 16.5315522,5.98277983 Z M16.5315522,7.03304913 C19.5413553,7.03304913 21.9812829,9.47297667 21.9812829,12.4827798 C21.9812829,15.492583 19.5413553,17.9325105 16.5315522,17.9325105 C13.521749,17.9325105 11.0818215,15.492583 11.0818215,12.4827798 C11.0818215,9.47297667 13.521749,7.03304913 16.5315522,7.03304913 Z" id="Oval" fill="#000000" fill-rule="nonzero"></path>            <path d="M16.2676845,9.34809348 C16.8377738,9.34809348 17.3661768,9.46740638 17.8408264,9.66644643 C18.1302318,9.78780603 18.3427247,9.9125558 18.46824,10.0046649 C18.6958569,10.1717008 18.7506363,10.4996924 18.5905931,10.7372547 C18.43055,10.9748169 18.1162895,11.0319898 17.8886726,10.8649538 C17.8231108,10.8168415 17.6773339,10.7312592 17.4651618,10.6422867 C17.1038486,10.4907732 16.7007503,10.399754 16.2676845,10.399754 C15.5075679,10.399754 14.8607294,10.8216922 14.8607294,11.1826568 C14.8607294,11.5443073 15.1222477,11.7122276 16.0705373,11.9153693 L16.6934442,12.0429445 C18.1260465,12.3534621 18.6823155,12.7183333 18.6823155,13.800123 C18.6823155,14.8725327 17.5138784,15.6346863 16.2676845,15.6346863 C15.6975951,15.6346863 15.1691921,15.5153734 14.6945426,15.3163334 C14.4051371,15.1949738 14.1926443,15.070224 14.0671289,14.978115 C13.839512,14.811079 13.7847327,14.4830874 13.9447758,14.2455251 C14.0902696,14.0295595 14.3632157,13.9626759 14.5826518,14.0777967 L14.7222144,14.1674466 C14.8009793,14.2151193 14.9186557,14.2769414 15.0702072,14.3404932 C15.4315204,14.4920066 15.8346186,14.5830258 16.2676845,14.5830258 C17.027801,14.5830258 17.6746395,14.1610877 17.6746395,13.800123 C17.6746395,13.4384726 17.4131212,13.2705522 16.4648317,13.0674105 L16.1748368,13.0082138 C14.4947784,12.679439 13.8530535,12.3445791 13.8530535,11.1826568 C13.8530535,10.1102471 15.0214906,9.34809348 16.2676845,9.34809348 Z" id="Path" fill="#000000" fill-rule="nonzero"></path>            <path d="M16.2676557,8.47560476 C16.545906,8.47560476 16.7714854,8.71099693 16.7715013,9.00140497 L16.771549,9.87389369 C16.7715649,10.1643017 16.5460114,10.399754 16.267761,10.399754 C15.9895107,10.399754 15.7639314,10.1643618 15.7639155,9.87395379 L15.7638677,9.00146506 C15.7638518,8.71105703 15.9894054,8.47560476 16.2676557,8.47560476 Z" id="Path" fill="#000000" fill-rule="nonzero"></path>            <path d="M16.2676557,14.5830258 C16.545906,14.5830258 16.7714854,14.818418 16.7715013,15.108826 L16.771549,15.9813148 C16.7715649,16.2717228 16.5460114,16.5071751 16.267761,16.5071751 C15.9895107,16.5071751 15.7639314,16.2717829 15.7639155,15.9813749 L15.7638677,15.1088861 C15.7638518,14.8184781 15.9894054,14.5830258 16.2676557,14.5830258 Z" id="Path" fill="#000000" fill-rule="nonzero"></path>            <path d="M1.95874086,0.466948224 L1.95874086,4.83893926 L0.375019879,4.83893926 L0.375019879,9.18924892 L3.07866174,9.18924892 L3.07866174,13.6651964 L1.95874086,13.6651964 L1.95874086,18.6681153 L12.0324527,18.6681153 C10.9227476,17.4437049 10.22005,16.4926916 9.92435989,15.8150753 C8.9592916,13.6034828 9.0385871,11.3569332 9.53053435,10.0258303 C10.2485753,8.08296657 11.4817311,6.58727161 13.2300016,5.53874539 L13.2300016,0.466948224 L1.95874086,0.466948224 Z" id="Path-4" fill="#D52B1E"></path>            <path d="M8.38575064,8.97416974 C8.66400097,8.97416974 8.88956743,9.20959197 8.88956743,9.5 C8.88956743,9.75814047 8.71134208,9.97283537 8.47631234,10.0173584 L8.38575064,10.0258303 L4.08651399,10.0258303 C3.96903052,10.0258303 3.87379135,10.1252308 3.87379135,10.2478475 L3.87379135,13.2392374 C3.87379135,13.3618541 3.96903052,13.4612546 4.08651399,13.4612546 L7.6692112,13.4612546 C7.94746153,13.4612546 8.17302799,13.6966768 8.17302799,13.9870849 C8.17302799,14.2452253 7.99480264,14.4599202 7.7597729,14.5044433 L7.6692112,14.5129151 L2.65343511,14.5129151 C2.53595164,14.5129151 2.44071247,14.6123156 2.44071247,14.7349323 L2.44071247,17.7263223 C2.44071247,17.848939 2.53595164,17.9483395 2.65343511,17.9483395 L9.81882952,17.9483395 C10.0970798,17.9483395 10.3226463,18.1837617 10.3226463,18.4741697 C10.3226463,18.7645778 10.0970798,19 9.81882952,19 L2.65343511,19 C1.97945098,19 1.43307888,18.4297551 1.43307888,17.7263223 L1.43307888,14.7349323 C1.43307888,14.0314996 1.97945098,13.4612546 2.65343511,13.4612546 L2.88479472,13.4622095 C2.87254658,13.3898113 2.86615776,13.315303 2.86615776,13.2392374 L2.86615776,10.2478475 C2.86615776,10.1717818 2.87254658,10.0972736 2.88479472,10.0248753 L1.22035623,10.0258303 C0.546372097,10.0258303 0,9.45558531 0,8.75215252 L0,5.76076261 C0,5.05732982 0.546372097,4.48708487 1.22035623,4.48708487 L1.45171583,4.4880398 C1.4394677,4.41564156 1.43307888,4.3411333 1.43307888,4.26506765 L1.43307888,1.27367774 C1.43307888,0.570244947 1.97945098,0 2.65343511,0 L12.6849873,0 C13.3589714,0 13.9053435,0.570244947 13.9053435,1.27367774 L13.9053435,4.26506765 C13.9053435,4.55547568 13.679777,4.79089791 13.4015267,4.79089791 C13.1232764,4.79089791 12.8977099,4.55547568 12.8977099,4.26506765 L12.8977099,1.27367774 C12.8977099,1.15106101 12.8024708,1.05166052 12.6849873,1.05166052 L2.65343511,1.05166052 C2.53595164,1.05166052 2.44071247,1.15106101 2.44071247,1.27367774 L2.44071247,4.26506765 C2.44071247,4.38768438 2.53595164,4.48708487 2.65343511,4.48708487 L10.535369,4.48708487 C10.8136193,4.48708487 11.0391858,4.7225071 11.0391858,5.01291513 C11.0391858,5.30332316 10.8136193,5.53874539 10.535369,5.53874539 L1.22035623,5.53874539 C1.10287276,5.53874539 1.00763359,5.63814588 1.00763359,5.76076261 L1.00763359,8.75215252 C1.00763359,8.87476925 1.10287276,8.97416974 1.22035623,8.97416974 L8.38575064,8.97416974 Z" id="Combined-Shape" fill="#000000" fill-rule="nonzero"></path>        </g>    </g></svg>