<svg width="16px" height="16px" viewBox="0 0 24 24" version="1.1" xmlns="http://www.w3.org/2000/svg" xmlns:xlink="http://www.w3.org/1999/xlink">    <title>icons/prod cat/lifestyle/clr-travel</title>    <g id="icons/prod-cat/lifestyle/clr-travel" stroke="none" stroke-width="1" fill="none" fill-rule="evenodd">        <g id="Group" transform="translate(1.000000, 4.000000)" fill-rule="nonzero">            <path d="M14.716179,3.23951113 L8.70329861,0.522632975 C8.58955993,0.471127403 8.46181665,0.471127403 8.34806867,0.522632975 L6.126496,1.53114793 C6.04150119,1.56968542 5.96884644,1.63496384 5.91772867,1.71874189 C5.8666109,1.80251994 5.839327,1.90101824 5.839327,2.00178824 C5.839327,2.10255824 5.8666109,2.20105653 5.91772867,2.28483458 C5.96884644,2.36861263 6.04150119,2.43389105 6.126496,2.47242855 L11.3526537,4.84091063" id="Path" fill="#D52B1E"></path>            <path d="M8.18212164,0.0747615986 C8.40221532,-0.0248977682 8.64916996,-0.0248977682 8.86894383,0.0746250805 L14.8818242,2.79150324 C15.1056456,2.89263536 15.2129268,3.17519912 15.1214434,3.42262705 C15.0299601,3.67005497 14.7743551,3.78865115 14.5505338,3.68751903 L8.53733995,0.970499089 C8.52994991,0.967152574 8.52141797,0.967152574 8.51437959,0.970339372 L6.28575278,1.98337034 L6.28068924,1.98938408 C6.27831898,1.99326875 6.27713701,1.99753589 6.27713701,2.00178824 L6.28068924,2.0141924 L6.28574446,2.02020236 L11.5187241,4.39309516 C11.7424493,4.4944869 11.8494622,4.77717496 11.757744,5.02449661 C11.6660259,5.27181827 11.4103085,5.39011784 11.1865832,5.28872611 L5.96035893,2.92021382 C5.79547856,2.84545541 5.65429639,2.71859588 5.5547681,2.55547676 C5.45490197,2.39180395 5.401517,2.19907423 5.401517,2.00178824 C5.401517,1.80450225 5.45490197,1.61177252 5.5547681,1.44809971 C5.65429639,1.2849806 5.79547856,1.15812107 5.96018508,1.08344153 L8.18212164,0.0747615986 Z" id="Path" fill="#000000"></path>            <path d="M18.8971051,1.24794878 L6.1878708,7.304132 L3.59060063,5.87794924 C3.53015574,5.84467843 3.46380586,5.82625011 3.39619128,5.82396822 C3.32857671,5.82167614 3.2613155,5.83558142 3.19910376,5.86470611 L0.773869027,7.00768973 C0.704095173,7.0405938 0.642728736,7.09163077 0.595137224,7.15652208 C0.547545712,7.22131153 0.515178872,7.29791792 0.500866453,7.37961782 C0.486554034,7.46131771 0.490732171,7.54566624 0.513034473,7.62522686 C0.535336776,7.70478748 0.575085331,7.77711532 0.628804095,7.83589443 L4.11042663,11.6509333 C4.17489808,11.7214275 4.25687064,11.769714 4.34614308,11.7895787 C4.43541553,11.8095452 4.52807288,11.800275 4.61258413,11.7629905 L11.3024379,8.83218496 L8.92834886,15.767508 C8.89561563,15.863266 8.88994311,15.967581 8.91207524,16.0669045 C8.93420736,16.1662279 8.98311193,16.2559756 9.05242826,16.3244323 C9.12177249,16.3928891 9.20825517,16.436897 9.30078234,16.4508533 C9.39321652,16.4647076 9.48732455,16.4476953 9.57092448,16.4021593 L12.0965907,15.0197807 C12.1862351,14.9705774 12.259048,14.8908131 12.3039632,14.7926102 L15.9548342,6.79478101 L20.3254642,5.01205256 C20.5557128,4.91330978 20.765689,4.76525164 20.943118,4.57654728 C21.120547,4.38783274 21.261802,4.16226157 21.3586998,3.91302594 C21.4555976,3.66378013 21.5061853,3.3958717 21.5074165,3.12497847 C21.5086031,2.85408524 21.4605262,2.58564709 21.3659532,2.3353622 C21.2712872,2.08506712 21.132078,1.85795771 20.9564158,1.66731782 C20.7807537,1.47667793 20.5720794,1.3263379 20.3427608,1.22507892 C20.1133492,1.12383013 19.86785,1.07369981 19.6205839,1.07762181 C19.3733178,1.081554 19.1293065,1.13945702 18.9026847,1.24794878 L18.8971051,1.24794878 Z" id="Path" fill="#FFF3F2"></path>            <path d="M19.6135176,0.533193524 L19.4586218,0.541262665 C19.201205,0.564014531 18.9478112,0.633137837 18.7053561,0.746420442 L6.20267327,6.70374624 L3.80971098,5.39030938 C3.68600211,5.32221577 3.5498821,5.28441707 3.41122075,5.27973745 C3.27265275,5.2750401 3.13471635,5.30355275 3.00703355,5.363328 L0.580710377,6.50682287 C0.437110766,6.57454181 0.310726003,6.67975057 0.212546575,6.81361881 C0.114186803,6.94752216 0.0470340723,7.10644664 0.0173143056,7.27609664 C-0.0124307253,7.44589086 -0.00374774575,7.62116233 0.042569387,7.7863928 C0.0888246808,7.95140267 0.171179832,8.1012638 0.282317296,8.22287048 L3.76368993,12.0376357 C3.89693946,12.1833335 4.06555298,12.2825476 4.24895101,12.3233569 L4.35924018,12.3407072 C4.50696371,12.3543165 4.6563512,12.3299244 4.79514702,12.2686907 L10.4470223,9.79206131 L8.46769327,15.5747994 C8.399633,15.7739032 8.38784527,15.9907451 8.43383485,16.1971348 C8.47973987,16.403145 8.58102321,16.5889934 8.72428558,16.7304793 C8.8669882,16.8713556 9.04455287,16.9617344 9.23419616,16.990339 C9.42414281,17.0188091 9.61708925,16.9840039 9.78861706,16.8905745 L12.3151321,15.5077325 L12.4047139,15.4517762 C12.5488166,15.3501503 12.6660565,15.2076346 12.7435101,15.0382896 L16.3068903,7.23153304 L20.495961,5.52287425 C20.7946121,5.39487716 21.060122,5.20766565 21.2845986,4.96892385 C21.5093119,4.72991741 21.6883432,4.44406097 21.811213,4.12802147 C21.9341938,3.8116836 21.9983837,3.47159245 21.9999737,3.12771397 C22.0014533,2.78373939 21.9404204,2.44304074 21.8204328,2.12549661 C21.7003473,1.80799276 21.5239299,1.52020839 21.3014646,1.27877471 C21.0792326,1.03759417 20.8153727,0.847454077 20.5254617,0.71943962 C20.2356491,0.591533348 19.925683,0.528242124 19.6135176,0.533193524 Z M19.6276685,1.6220498 C19.8100059,1.61915766 19.9910391,1.65612238 20.1601396,1.73075341 C20.3289036,1.80527364 20.4823648,1.91585935 20.6113671,2.05586093 C20.7401865,2.1956641 20.8422058,2.36208511 20.9115373,2.54539618 C20.9806107,2.72819725 21.0157532,2.92437025 21.0149016,3.12234182 C21.0139875,3.32003231 20.9770439,3.5157674 20.9061837,3.69803783 C20.8352285,3.88054524 20.7317229,4.04581095 20.6016278,4.1841809 C20.4712462,4.32284805 20.3168007,4.43174786 20.147326,4.5044276 L15.7843374,6.28395933 L15.7168407,6.31807753 C15.6305688,6.37071281 15.5600186,6.45110992 15.5151134,6.54948207 L11.8688103,14.5363347 L9.41663651,15.8779441 L11.7630935,9.02489352 L11.7825374,8.95522415 C11.8728695,8.5388263 11.4978291,8.16090245 11.1209763,8.32600057 L4.44464721,11.2505533 L1.01068445,7.48707768 L3.38142561,6.37052183 L5.96876045,7.79177186 C6.0984327,7.86297597 6.24987732,7.86749999 6.38283884,7.80414138 L19.0920732,1.74795816 C19.2637848,1.66774404 19.4451855,1.62495177 19.6276685,1.6220498 Z" id="Path" fill="#000000"></path>        </g>    </g></svg>