<svg width="16px" height="16px" viewBox="0 0 24 24" version="1.1" xmlns="http://www.w3.org/2000/svg" xmlns:xlink="http://www.w3.org/1999/xlink">    <title>icons/prod cat/investment/clr-wealth</title>    <g id="icons/prod-cat/investment/clr-wealth" stroke="none" stroke-width="1" fill="none" fill-rule="evenodd">        <g id="Group-7" transform="translate(1.000000, 1.000000)">            <g id="Group">                <path d="M19.5136896,8.52015048 C20.3234517,9.00895048 21.1675981,8.48875048 21.0759903,7.54995048 C21.0058665,6.83190048 20.8844424,5.88110048 20.6766309,4.65450048 C20.3461905,2.70390548 19.9463792,1.52448548 19.6560957,0.861220476 C19.4378434,0.362590476 18.9809593,0.0456154756 18.4358306,0.0140804756 C17.7093437,-0.0279545244 16.4568025,0.00592047559 14.4988568,0.371335476 C13.2701588,0.600655476 12.3309412,0.815260476 11.6287993,0.997535476 C10.710413,1.23593048 10.5118878,2.20712548 11.2551904,2.79500048 C11.7700509,3.20224048 12.4598445,3.72645048 13.3773775,4.39010048 C12.730903,5.75820048 11.9172256,7.14585048 11.048433,8.33675048 C11.048433,8.33675048 8.99104896,6.71760048 7.0738122,5.37685048 C6.51231959,4.98415048 5.7489386,5.06210048 5.28512743,5.56570048 C2.38631766,8.71325048 0.723112886,11.7674505 0.134403993,12.9525505 C-0.0324826952,13.2885005 -0.0679762968,13.6760505 0.170896495,13.9656505 C0.314984154,14.1403005 0.531233602,14.3497505 0.85478707,14.5748505 C1.09017626,14.7386005 1.2981534,14.8521005 1.47647976,14.9305005 C1.93329863,15.1313005 2.39034338,14.8722005 2.68531022,14.4708005 C3.57228884,13.2639005 5.54147848,10.6319005 6.69066603,9.46055048 C7.18655245,9.80550048 7.79000893,10.2810505 8.40064344,10.7858005 C8.52452721,10.8882505 8.71190893,10.8504505 8.79362804,10.7123005 C9.75357661,9.08915048 11.526299,8.00000142 13.5544188,8.00000142 C14.4360616,8.00000142 15.269466,8.20585048 16.0088031,8.57190048 C16.113763,8.62385048 16.2414616,8.60170048 16.3189141,8.51410048 C16.7236947,8.05605048 17.1127138,7.62030048 17.4780404,7.22660048 C18.3248472,7.78565048 18.9928558,8.20570048 19.5136896,8.52015048 Z" id="Path" fill="#D52B1E" fill-rule="nonzero"></path>                <path d="M16.5652761,8.24635048 C16.8839706,7.88760048 17.1915216,7.54565048 17.4839134,7.23060048 C18.2900112,7.76265048 18.9342268,8.16895048 19.4437665,8.47805048 C20.2912761,8.99225048 21.1748765,8.44965048 21.0756892,7.46610048 C21.0043606,6.75855048 20.8843922,5.83490048 20.6848128,4.65705048 C20.3600446,2.74015048 19.9682647,1.56759548 19.6791859,0.897635476 C19.4531532,0.373900476 18.974735,0.0420204756 18.4032534,0.0119204756 C17.6706927,-0.0266645244 16.4271869,0.0124154756 14.5026215,0.371540476 C13.3226638,0.591725476 12.4094979,0.798360476 11.7167427,0.975850476 C10.7533306,1.22268048 10.5474768,2.23857548 11.3280248,2.85287048 C11.8351049,3.25200048 12.5038664,3.75870048 13.3802888,4.39255048 C12.8088574,5.60170048 12.1068159,6.82610048 11.3515165,7.91660048 C11.1896344,8.15035048 10.8639626,8.19565048 10.6388335,8.02140048 C9.95029479,7.48850048 8.50239076,6.38185048 7.11818548,5.41195048 C6.53003878,4.99985048 5.72941235,5.08155048 5.24416749,5.61015048 C2.38675938,8.72305048 0.737373573,11.7370505 0.140201633,12.9348505 C-0.0352033192,13.2867005 -0.0721174679,13.6936505 0.18179907,13.9942505 C0.325826493,14.1647005 0.537754064,14.3665505 0.84874347,14.5829005 C1.0694955,14.7364505 1.26615345,14.8458005 1.43688013,14.9235005 C1.91290399,15.1401505 2.39390227,14.8685505 2.70321011,14.4480505 C3.60125194,13.2270005 5.54845572,10.6279005 6.68880877,9.46575048 C7.08811806,9.74350048 7.55719982,10.1059005 8.04359919,10.5" id="Path" stroke="#000000" stroke-width="1.2" stroke-linecap="round" stroke-linejoin="round"></path>            </g>            <g id="Group" transform="translate(8.500000, 10.000000)">                <circle id="Oval" fill="#FFF3F2" fill-rule="nonzero" cx="6" cy="6" r="5.5"></circle>                <circle id="Oval" stroke="#000000" stroke-width="1.2" stroke-linecap="round" stroke-linejoin="round" cx="6" cy="6" r="6"></circle>                <path d="M8,3.9375 C8,3.9375 7.2,3.375 6,3.375 C5,3.375 4,3.9375 4,4.6875 C4,6.5625 8,5.4375 8,7.3125 C8,8.0625 7,8.625 6,8.625 C4.8,8.625 4,8.0625 4,8.0625" id="Path" stroke="#000000" stroke-width="1.2" stroke-linecap="round" stroke-linejoin="round"></path>                <line x1="6.00005" y1="3.375" x2="6" y2="2.5" id="Path" stroke="#000000" stroke-width="1.2" stroke-linecap="round" stroke-linejoin="round"></line>                <line x1="6.00005" y1="9.5" x2="6" y2="8.625" id="Path" stroke="#000000" stroke-width="1.2" stroke-linecap="round" stroke-linejoin="round"></line>            </g>        </g>    </g></svg>